<?xml version="1.0" standalone="no"?>
<!DOCTYPE svg PUBLIC "-//W3C//DTD SVG 20010904//EN"
 "http://www.w3.org/TR/2001/REC-SVG-20010904/DTD/svg10.dtd">
<svg version="1.0" xmlns="http://www.w3.org/2000/svg"
 width="588.000000pt" height="266.000000pt" viewBox="0 0 588.000000 266.000000"
 preserveAspectRatio="xMidYMid meet">

<g transform="translate(0.000000,266.000000) scale(0.100000,-0.100000)"
fill="#000000" stroke="none">
<path d="M1256 2378 c-8 -13 -29 -53 -47 -90 -18 -37 -37 -64 -42 -61 -6 3 -7
1 -3 -5 15 -25 33 -9 69 63 21 42 42 73 47 70 6 -3 10 -11 10 -17 0 -6 9 -32
21 -57 12 -25 29 -64 40 -86 10 -22 30 -66 44 -97 14 -32 29 -58 34 -58 5 0
39 68 77 150 37 83 71 153 75 156 4 2 17 -17 29 -43 12 -27 34 -75 50 -108 15
-33 36 -81 46 -107 11 -27 25 -48 32 -48 6 0 12 1 12 3 0 1 27 63 61 137 33
74 65 146 70 160 10 23 11 22 36 -30 14 -30 29 -64 33 -75 5 -11 23 -51 41
-90 33 -68 35 -74 38 -95 3 -29 32 -3 56 53 60 136 58 129 38 118 -10 -5 -29
-37 -43 -70 -14 -34 -28 -61 -32 -61 -8 0 -47 71 -44 81 0 3 -11 30 -25 60
-15 30 -39 80 -54 113 -22 49 -29 56 -40 45 -7 -8 -41 -77 -75 -154 -34 -77
-64 -144 -67 -148 -5 -8 -33 37 -37 58 -1 6 -12 33 -25 60 -12 28 -33 73 -46
100 -12 28 -26 58 -29 68 -13 39 -39 11 -83 -88 -25 -55 -56 -125 -70 -155
l-25 -55 -30 65 c-16 36 -31 70 -32 75 -1 6 -13 33 -26 60 -12 28 -24 55 -25
61 -3 13 -36 64 -41 64 -2 0 -10 -10 -18 -22z"/>
<path d="M848 2223 c-16 -4 -18 -26 -20 -236 -2 -128 -6 -231 -10 -230 -24 5
-168 -45 -168 -59 0 -5 -6 -8 -13 -8 -15 0 -75 -62 -101 -103 -45 -72 -63
-221 -36 -292 6 -16 11 -32 11 -35 0 -3 11 -19 25 -37 13 -17 24 -35 24 -38 0
-14 70 -72 113 -93 25 -13 71 -28 101 -34 l56 -12 0 -233 0 -233 1640 0 1640
0 0 183 0 182 -73 33 -72 33 30 14 c17 7 57 26 90 40 149 67 195 91 195 101 0
6 -70 43 -156 82 l-156 70 25 17 c14 9 32 18 39 19 13 3 90 37 140 62 14 8 33
14 42 14 9 0 16 5 16 12 0 6 3 8 6 5 10 -9 44 12 44 26 0 7 -64 42 -142 76
-79 35 -149 67 -157 71 -14 7 83 57 252 129 26 11 47 26 47 33 0 7 -38 33 -85
57 l-85 44 0 168 c0 154 -7 198 -26 168 -4 -8 -3 -9 4 -5 9 5 12 -39 12 -172
l0 -180 78 -40 77 -41 -30 -10 c-16 -6 -42 -18 -57 -26 -14 -8 -33 -15 -42
-15 -9 0 -16 -5 -16 -10 0 -6 -3 -9 -7 -8 -5 1 -26 -6 -48 -16 -22 -10 -59
-28 -83 -38 -24 -11 -41 -25 -39 -32 2 -6 74 -42 160 -81 l157 -70 -48 -21
c-260 -118 -281 -129 -267 -142 6 -5 73 -38 150 -72 77 -34 143 -65 148 -69 4
-4 -11 -17 -33 -30 -22 -12 -40 -20 -40 -17 0 3 -25 -8 -55 -25 -30 -16 -55
-28 -55 -25 0 3 -24 -7 -54 -23 -30 -17 -57 -27 -61 -23 -4 4 -6 -1 -4 -11 3
-11 34 -31 86 -55 l82 -37 1 -167 0 -168 -810 0 -810 0 0 245 0 245 38 16 c20
10 39 18 42 19 20 5 90 47 90 54 0 4 -37 24 -82 44 l-83 35 0 73 0 72 83 35
c45 18 82 39 82 45 0 7 -38 29 -83 49 l-82 37 0 73 c0 42 4 73 10 74 6 0 27 8
48 17 20 9 53 24 73 32 19 9 34 21 32 28 -2 7 -41 31 -86 55 l-82 43 0 169 c0
93 -3 171 -7 173 -5 3 -7 -111 -5 -253 l3 -258 -23 -7 c-13 -4 -45 -18 -73
-30 -27 -12 -58 -25 -68 -29 -32 -11 -14 -26 73 -65 l85 -38 0 -68 c0 -50 -4
-70 -15 -75 -8 -4 -32 -15 -53 -26 -21 -10 -46 -19 -54 -20 -9 -2 -25 -12 -36
-23 l-21 -20 25 -10 c13 -5 54 -23 92 -40 l67 -30 0 -63 0 -64 -52 -26 c-29
-14 -70 -34 -90 -43 -21 -9 -35 -22 -32 -27 4 -6 44 -27 90 -49 l84 -38 0
-166 0 -165 -815 0 -815 0 1 225 c1 124 5 228 10 231 5 3 21 7 36 9 66 10 133
33 133 46 0 5 6 9 13 9 14 0 85 72 109 111 25 40 48 128 48 184 0 91 -44 191
-115 259 -36 34 -140 86 -173 86 -13 0 -32 5 -43 11 -19 10 -20 21 -19 229 1
217 2 219 23 222 12 2 18 6 12 9 -5 3 -18 4 -27 2z m1702 -403 c33 -17 60 -32
60 -35 0 -6 -105 -55 -118 -55 -8 0 -12 21 -12 60 0 33 2 60 5 60 3 0 32 -14
65 -30z m-1720 -419 l0 -330 -32 5 c-89 16 -157 52 -210 112 -29 33 -73 112
-62 112 4 0 2 6 -4 13 -5 6 -10 46 -11 87 -1 64 3 84 28 137 49 103 158 186
251 191 l40 3 0 -330z m152 296 c65 -30 140 -102 146 -140 1 -4 8 -20 17 -36
24 -47 28 -132 11 -202 -34 -131 -133 -217 -278 -243 l-28 -5 0 331 0 331 39
-6 c22 -3 64 -16 93 -30z m1488 -67 c0 -33 -2 -60 -4 -60 -12 0 -126 54 -126
59 0 6 40 24 68 31 4 1 16 9 27 16 31 22 35 17 35 -46z m85 -129 l60 -28 -60
-28 c-33 -15 -63 -29 -67 -32 -5 -2 -8 23 -8 56 0 34 3 61 8 61 4 -1 34 -14
67 -29z m-85 -181 c0 -33 -2 -60 -4 -60 -12 0 -136 60 -136 66 0 4 3 5 6 2 3
-4 30 7 61 23 30 16 59 29 64 29 5 0 9 -27 9 -60z m84 -126 c31 -14 56 -27 56
-30 0 -4 -36 -21 -60 -29 -3 -1 -18 -7 -33 -13 -16 -7 -30 -12 -33 -12 -2 0
-4 25 -4 55 0 30 4 55 9 55 5 0 34 -12 65 -26z m-84 -184 c0 -33 -2 -60 -4
-60 -2 0 -34 14 -71 31 l-69 31 65 29 c35 15 67 29 72 29 4 0 7 -27 7 -60z"/>
<path d="M1130 2219 c0 -5 5 -7 10 -4 6 3 10 8 10 11 0 2 -4 4 -10 4 -5 0 -10
-5 -10 -11z"/>
<path d="M2430 2219 c0 -5 5 -7 10 -4 6 3 10 8 10 11 0 2 -4 4 -10 4 -5 0 -10
-5 -10 -11z"/>
<path d="M352 1605 l-32 -65 30 0 30 0 3 -202 2 -203 3 202 2 202 29 3 29 3
-32 63 -32 62 -32 -65z"/>
<path d="M200 1405 c0 -8 7 -15 15 -15 8 0 15 7 15 15 0 8 -7 15 -15 15 -8 0
-15 -7 -15 -15z"/>
</g>
</svg>
