<?xml version="1.0" standalone="no"?>
<!DOCTYPE svg PUBLIC "-//W3C//DTD SVG 20010904//EN"
 "http://www.w3.org/TR/2001/REC-SVG-20010904/DTD/svg10.dtd">
<svg version="1.0" xmlns="http://www.w3.org/2000/svg"
 width="706.000000pt" height="208.000000pt" viewBox="0 0 706.000000 208.000000"
 preserveAspectRatio="xMidYMid meet">

<g transform="translate(0.000000,208.000000) scale(0.100000,-0.100000)"
fill="#000000" stroke="none">
<path d="M658 1678 l-3 -233 -30 -3 c-130 -14 -261 -125 -296 -251 -12 -41
-15 -147 -6 -181 38 -140 161 -253 292 -268 l45 -5 2 -231 3 -231 2452 -3
c1959 -2 2453 0 2454 10 3 44 -3 304 -7 308 -3 2 -4 -65 -3 -150 l1 -155 -811
-3 -811 -2 0 176 0 175 -67 31 c-38 16 -70 32 -73 35 -7 6 23 22 32 17 4 -3 8
0 8 5 0 6 3 10 8 9 9 -2 49 15 137 56 39 19 82 39 98 45 15 6 27 16 27 24 0 7
-69 43 -155 81 -175 77 -172 72 -58 122 32 13 75 34 96 45 20 11 37 17 37 14
0 -3 18 4 40 16 22 13 40 27 40 33 0 6 -70 42 -156 80 -85 38 -151 72 -147 77
4 4 57 28 117 54 61 26 123 56 140 66 16 10 33 16 38 13 4 -3 8 3 8 13 0 12
-25 31 -83 59 l-82 42 -3 166 -2 166 810 0 c532 0 810 -3 811 -10 1 -5 2 -14
3 -19 3 -26 15 -19 14 8 l-1 31 -2458 0 -2459 0 -2 -232z m1635 55 c-2 -93 1
-173 5 -179 4 -6 38 -27 76 -46 l68 -34 -63 -33 c-35 -18 -71 -34 -79 -36 -37
-8 -170 -77 -170 -89 0 -7 70 -44 155 -82 85 -38 155 -73 155 -78 0 -5 -3 -7
-6 -4 -3 3 -45 -14 -94 -38 -49 -24 -94 -44 -100 -44 -20 0 -110 -54 -110 -66
0 -6 70 -41 155 -79 l154 -69 -37 -23 c-20 -12 -40 -23 -44 -23 -4 0 -35 -13
-70 -29 -35 -16 -87 -39 -116 -52 -28 -13 -51 -28 -49 -33 2 -5 41 -26 86 -46
l84 -36 -1 -165 -1 -164 -810 -3 -811 -2 0 225 c0 172 3 227 13 230 6 2 28 6
47 8 118 14 232 115 274 244 18 55 20 149 4 193 -6 14 -11 33 -13 42 -6 27
-60 101 -98 135 -48 42 -122 75 -178 81 l-49 5 0 228 0 229 813 0 812 0 -2
-167z m1637 -7 l0 -175 70 -37 c39 -20 70 -40 70 -44 0 -4 -15 -13 -32 -20
-18 -7 -53 -22 -78 -34 -25 -11 -47 -21 -50 -22 -25 -4 -150 -70 -150 -78 0
-6 70 -42 155 -81 141 -63 178 -85 143 -85 -7 0 -38 -13 -69 -30 -31 -16 -59
-26 -63 -23 -3 3 -6 1 -6 -5 0 -7 -5 -12 -11 -12 -10 0 -77 -28 -126 -52 -13
-6 -23 -16 -23 -22 0 -6 73 -43 162 -83 121 -53 157 -74 143 -79 -11 -3 -40
-16 -65 -27 -25 -11 -48 -20 -52 -19 -5 1 -8 -2 -8 -8 0 -6 -3 -9 -7 -8 -5 1
-26 -7 -48 -17 -22 -10 -42 -19 -45 -20 -39 -14 -80 -37 -80 -46 0 -5 38 -28
85 -49 l85 -39 0 -166 0 -165 -810 0 -810 0 -2 176 -3 177 -74 32 -73 32 48
23 c27 13 70 34 97 47 26 13 47 22 47 18 0 -3 19 5 43 17 23 12 44 22 47 23 3
0 14 6 25 12 14 8 17 15 10 22 -6 6 -80 42 -165 80 l-155 70 40 16 c22 9 60
26 85 38 25 11 47 21 50 21 3 1 25 11 50 22 25 12 58 26 73 33 16 6 27 17 25
23 -3 7 -75 44 -161 82 l-156 71 57 29 c31 15 61 29 67 30 10 3 75 32 153 69
23 11 41 24 39 30 -1 5 -39 28 -84 51 l-82 41 0 168 -1 167 810 0 810 0 0
-174z m-3275 -636 l0 -325 -40 2 c-22 2 -63 15 -92 29 -115 56 -174 147 -181
278 -4 74 -2 88 26 147 16 37 45 82 63 101 54 56 139 96 199 94 l25 -1 0 -325z
m132 308 c83 -32 164 -114 189 -193 23 -70 27 -110 16 -166 -6 -34 -21 -80
-32 -103 -24 -46 -88 -116 -106 -116 -6 0 -17 -6 -23 -13 -11 -14 -73 -36
-123 -44 l-28 -4 0 330 0 331 24 0 c13 0 50 -10 83 -22z"/>
<path d="M5563 1697 l0 -149 73 -36 c72 -35 90 -52 59 -52 -8 0 -23 -4 -33 -9
-9 -6 -57 -29 -107 -51 -122 -57 -153 -73 -155 -85 -1 -5 68 -42 153 -81 l156
-71 -50 -26 c-27 -15 -49 -25 -49 -22 0 3 -17 -3 -37 -14 -21 -10 -42 -19 -47
-19 -5 0 -12 -4 -15 -9 -3 -5 -32 -20 -64 -33 -31 -13 -56 -28 -54 -33 2 -8
163 -85 295 -142 22 -10 21 -11 -20 -31 -24 -12 -63 -30 -88 -41 -145 -65
-190 -88 -187 -96 1 -4 43 -27 93 -51 64 -31 91 -39 91 -29 0 8 -34 30 -76 50
-69 32 -74 36 -51 43 14 4 63 25 110 47 47 22 106 49 132 59 26 11 50 25 52
31 6 15 7 15 -169 93 -77 34 -142 64 -143 66 -2 1 14 12 37 24 23 11 41 18 41
15 0 -3 17 3 38 14 20 10 41 19 46 19 5 0 12 4 15 9 8 10 80 44 105 49 11 2
23 7 27 11 18 18 2 27 -261 145 l-54 24 49 23 c65 31 114 51 120 51 3 -1 18 6
33 15 15 8 48 24 75 35 26 10 47 24 47 30 0 5 -37 28 -82 51 -46 23 -85 43
-88 46 -3 3 -8 66 -11 141 l-6 137 0 -148z"/>
<path d="M185 1301 c-30 -64 -32 -75 -12 -77 6 0 18 -2 25 -2 9 -2 13 -50 14
-199 l2 -198 6 200 5 200 23 -2 c13 -2 22 3 22 11 0 14 -47 126 -53 126 -2 0
-16 -27 -32 -59z"/>
<path d="M30 1094 c0 -9 5 -14 12 -12 18 6 21 28 4 28 -9 0 -16 -7 -16 -16z"/>
</g>
</svg>
