<?xml version="1.0" standalone="no"?>
<!DOCTYPE svg PUBLIC "-//W3C//DTD SVG 20010904//EN"
 "http://www.w3.org/TR/2001/REC-SVG-20010904/DTD/svg10.dtd">
<svg version="1.0" xmlns="http://www.w3.org/2000/svg"
 width="366.000000pt" height="182.000000pt" viewBox="0 0 366.000000 182.000000"
 preserveAspectRatio="xMidYMid meet">

<g transform="translate(0.000000,182.000000) scale(0.100000,-0.100000)"
fill="#000000" stroke="none">
<path d="M864 1722 c-5 -4 -26 -37 -44 -74 l-35 -68 -147 0 -148 0 0 -203 c0
-173 -2 -204 -15 -204 -24 0 -125 -26 -125 -32 0 -4 -17 -17 -38 -30 -74 -45
-123 -149 -117 -247 4 -71 5 -77 33 -135 35 -76 132 -144 222 -156 l40 -6 0
-198 c0 -109 4 -200 9 -203 5 -4 20 -1 33 4 22 10 22 10 -4 5 l-28 -5 0 200 0
200 29 0 c47 0 157 57 189 98 66 84 92 179 71 266 -6 28 -16 57 -22 64 -5 6
-6 12 -3 12 9 0 -11 25 -59 75 -46 46 -96 73 -158 83 l-42 8 -3 197 -2 196
151 3 152 3 31 57 c17 32 34 58 37 58 3 0 23 -39 43 -87 47 -112 79 -174 90
-176 8 -2 36 55 107 218 l21 49 43 -89 c56 -116 78 -168 77 -177 -1 -5 4 -8
12 -8 7 0 24 24 36 53 50 116 93 207 99 207 4 0 15 -13 24 -30 10 -16 15 -30
12 -30 -3 0 6 -20 20 -43 14 -24 22 -47 18 -50 -3 -4 -1 -7 5 -7 7 0 11 -3 10
-7 -3 -13 36 -93 45 -93 4 0 23 34 42 75 l34 75 299 0 299 0 28 55 c34 68 42
74 56 38 6 -15 18 -42 26 -60 9 -17 14 -33 13 -35 -1 -2 11 -28 28 -59 17 -32
29 -59 26 -62 -2 -2 2 -9 9 -16 19 -15 24 -9 88 136 30 68 57 123 60 123 4 0
10 -10 14 -22 10 -30 8 -25 38 -88 14 -30 36 -79 49 -108 13 -28 27 -51 32
-49 4 1 35 61 67 132 32 72 61 129 64 128 11 -4 74 -141 68 -147 -4 -3 0 -6 7
-6 7 0 10 -3 7 -6 -7 -8 42 -104 53 -104 3 0 21 34 39 75 l33 75 144 0 144 0
0 -153 0 -153 60 -29 c33 -16 60 -31 60 -35 0 -4 -35 -22 -70 -35 -3 -1 -30
-13 -60 -27 -30 -14 -74 -34 -97 -44 -24 -10 -43 -23 -43 -28 0 -6 61 -38 136
-70 l135 -59 -30 -20 c-17 -10 -36 -20 -43 -21 -12 -2 -50 -19 -155 -69 -24
-11 -43 -23 -43 -27 0 -4 57 -33 128 -65 70 -31 130 -60 134 -64 7 -6 -28 -24
-147 -77 -22 -9 -42 -18 -45 -19 -17 -4 -70 -37 -70 -43 0 -4 33 -21 73 -39
l72 -32 6 -148 5 -148 0 155 -1 155 -52 25 c-29 14 -54 28 -57 31 -3 3 18 17
47 31 82 41 180 86 201 92 31 10 5 28 -129 86 -117 51 -152 70 -127 70 12 0
130 51 175 76 15 8 27 12 27 7 0 -4 4 -3 8 2 4 6 20 16 35 23 15 7 26 16 23
20 -2 4 -65 35 -140 67 l-135 59 57 29 c31 16 62 30 67 31 23 5 145 69 145 77
0 5 -31 25 -70 44 l-70 35 0 150 0 150 -158 0 -158 0 -23 -55 c-26 -62 -38
-75 -47 -48 -6 19 -66 149 -90 194 -7 14 -11 29 -8 32 3 3 -3 10 -13 15 -16 9
-24 -5 -77 -124 -52 -118 -76 -157 -76 -124 0 9 -27 71 -88 202 -19 40 -30 54
-38 47 -7 -5 -35 -62 -64 -127 -28 -64 -55 -121 -60 -126 -7 -7 -38 39 -42 61
-1 8 -12 35 -57 135 -14 31 -32 57 -38 57 -7 1 -29 -30 -48 -69 l-35 -70 -302
-2 -301 -3 -27 -64 c-26 -59 -35 -64 -44 -21 -1 5 -22 51 -67 146 -10 23 -19
46 -19 51 0 5 -8 17 -19 27 -18 16 -21 12 -76 -114 -33 -72 -62 -133 -65 -135
-8 -5 -19 15 -50 90 -41 100 -75 165 -86 165 -6 0 -38 -58 -69 -130 -56 -125
-75 -153 -75 -110 0 11 -4 20 -10 20 -5 0 -9 3 -8 8 1 7 -4 21 -50 122 -14 30
-26 57 -26 60 -5 19 -23 38 -32 32z m-380 -850 c1 -322 9 -299 -90 -265 -62
21 -146 104 -166 165 -36 106 -11 223 63 298 34 34 87 70 104 70 3 1 10 2 17
5 23 7 53 13 62 11 5 -1 9 -129 10 -284z m143 251 c130 -61 186 -240 120 -375
-43 -87 -120 -144 -210 -155 l-37 -5 0 280 c1 154 3 282 6 285 7 7 83 -11 121
-30z"/>
<path d="M76 1049 l-24 -54 24 -3 24 -3 3 -172 3 -172 2 173 2 172 25 0 25 0
-17 38 c-37 81 -40 82 -67 21z"/>
</g>
</svg>
